<svg xmlns="http://www.w3.org/2000/svg" viewBox="0 0 800 600"><rect width="800" height="600" fill="#CFE2F1"/><rect x="0" y="170" width="800" height="310" fill="#D9D3C3"/><rect x="0" y="150" width="800" height="26" fill="#3A1D17" opacity=".7"/>
<rect x="30" y="220" width="170" height="250" fill="#436E91"/><rect x="30" y="250" width="170" height="3" fill="#34597A"/><rect x="30" y="280" width="170" height="3" fill="#34597A"/><rect x="30" y="310" width="170" height="3" fill="#34597A"/><rect x="30" y="340" width="170" height="3" fill="#34597A"/><rect x="30" y="370" width="170" height="3" fill="#34597A"/><rect x="30" y="400" width="170" height="3" fill="#34597A"/><rect x="30" y="430" width="170" height="3" fill="#34597A"/><text x="115" y="210" font-family="Arial" font-size="26" font-weight="bold" fill="#3A1D17" text-anchor="middle">11</text><rect x="220" y="220" width="170" height="250" fill="#E95322"/><rect x="220" y="250" width="170" height="3" fill="#34597A"/><rect x="220" y="280" width="170" height="3" fill="#34597A"/><rect x="220" y="310" width="170" height="3" fill="#34597A"/><rect x="220" y="340" width="170" height="3" fill="#34597A"/><rect x="220" y="370" width="170" height="3" fill="#34597A"/><rect x="220" y="400" width="170" height="3" fill="#34597A"/><rect x="220" y="430" width="170" height="3" fill="#34597A"/><text x="305" y="210" font-family="Arial" font-size="26" font-weight="bold" fill="#3A1D17" text-anchor="middle">12</text><rect x="410" y="220" width="170" height="250" fill="#436E91"/><rect x="410" y="250" width="170" height="3" fill="#34597A"/><rect x="410" y="280" width="170" height="3" fill="#34597A"/><rect x="410" y="310" width="170" height="3" fill="#34597A"/><rect x="410" y="340" width="170" height="3" fill="#34597A"/><rect x="410" y="370" width="170" height="3" fill="#34597A"/><rect x="410" y="400" width="170" height="3" fill="#34597A"/><rect x="410" y="430" width="170" height="3" fill="#34597A"/><text x="495" y="210" font-family="Arial" font-size="26" font-weight="bold" fill="#3A1D17" text-anchor="middle">13</text><rect x="600" y="220" width="170" height="250" fill="#436E91"/><rect x="600" y="250" width="170" height="3" fill="#34597A"/><rect x="600" y="280" width="170" height="3" fill="#34597A"/><rect x="600" y="310" width="170" height="3" fill="#34597A"/><rect x="600" y="340" width="170" height="3" fill="#34597A"/><rect x="600" y="370" width="170" height="3" fill="#34597A"/><rect x="600" y="400" width="170" height="3" fill="#34597A"/><rect x="600" y="430" width="170" height="3" fill="#34597A"/><text x="685" y="210" font-family="Arial" font-size="26" font-weight="bold" fill="#3A1D17" text-anchor="middle">14</text><rect y="470" width="800" height="130" fill="#B9B3A6"/><rect y="470" width="800" height="8" fill="#A39C8D"/></svg>
