<svg xmlns="http://www.w3.org/2000/svg" viewBox="0 0 800 600"><rect width="800" height="600" fill="#6E7780"/><rect width="800" height="600" fill="#6E7780"/><rect width="800" height="110" fill="#4F575F"/>
<rect x="40" y="110" width="44" height="370" fill="#8A939B"/><rect x="380" y="110" width="44" height="370" fill="#8A939B"/><rect x="716" y="110" width="44" height="370" fill="#8A939B"/>
<rect x="0" y="470" width="800" height="130" fill="#5B636B"/><rect x="120" y="470" width="8" height="130" fill="#F2C94C"/><rect x="360" y="470" width="8" height="130" fill="#F2C94C"/><rect x="600" y="470" width="8" height="130" fill="#F2C94C"/>
<rect x="100" y="60" width="140" height="10" fill="#FFF6C8"/><rect x="560" y="60" width="140" height="10" fill="#FFF6C8"/>
<rect x="430" y="150" width="120" height="70" rx="6" fill="#436E91"/><text x="490" y="200" font-family="Arial" font-size="44" font-weight="bold" fill="#fff" text-anchor="middle">P</text>
<g transform="translate(130,330) scale(0.8)"><path d="M20 90 L50 40 Q60 25 80 25 H200 Q220 25 232 40 L265 90 Q280 92 280 110 V140 H0 V110 Q0 92 20 90Z" fill="#E95322"/><path d="M62 45 Q68 35 80 35 H135 V85 H45Z M150 35 H198 Q212 35 220 45 L240 85 H150Z" fill="#E7F0F7" opacity=".9"/><circle cx="60" cy="140" r="26" fill="#2B2B2B"/><circle cx="220" cy="140" r="26" fill="#2B2B2B"/><circle cx="60" cy="140" r="10" fill="#9A9A9A"/><circle cx="220" cy="140" r="10" fill="#9A9A9A"/></g></svg>
